# xmcd
#
# Track frame offsets:
#	150
#	13546
#	28004
#	43346
#	62140
#	72048
#	87155
#	99286
#	114632
#	132102
#	146076
#	158856
#	171021
#	187561
#
# Disc length: 2725 seconds
#
# Revision: 1
# Processed by: cddbd v1.5.2PL0 Copyright (c) Steve Scherf et al.
# Submitted via: EasyCDDAExtractor 11.0.0.1
#
DISCID=b20aa30e
DTITLE=Guilherme Valim and Robson Mattos - Guilherme Valim and Robson Mattos Ao Vi
DTITLE=vo
DYEAR=2009
DGENRE=Sertanejo
TTITLE0=Minutinho
TTITLE1=Volto Pra Você
TTITLE2=Paixão Violenta
TTITLE3=Não Tem Jeito Não, Só Mais uma Vez, Baby
TTITLE4=Pra Que Sofrer
TTITLE5=Prisioneiro
TTITLE6=Tá Rolando Uma Nova Paixão
TTITLE7=Alma Gêmea
TTITLE8=Faca Que Não Corta, Pagode em Brasilia, Pagode do Ala
TTITLE9=Pura Sacanagem
TTITLE10=Se Não Aguenta Bebe Leite
TTITLE11=Abusa de Mim
TTITLE12=Quem Sabe de Mim Sou Eu, Não Faz Assim Comigo
TTITLE13=O Dia Amanheceu
EXTD=ID3G:   2 YEAR: 2009
EXTT0=
EXTT1=
EXTT2=
EXTT3=
EXTT4=
EXTT5=
EXTT6=
EXTT7=
EXTT8=
EXTT9=
EXTT10=
EXTT11=
EXTT12=
EXTT13=
PLAYORDER=
